
<region>
sample=../Samples/perc/oh/woodblock/woodblock_lo_vl1_rr1.wav
hivel=21
amp_velcurve_21=1

<region>
sample=../Samples/perc/oh/woodblock/woodblock_lo_vl1_rr2.wav
hivel=21
seq_position=2
amp_velcurve_21=1

<region>
sample=../Samples/perc/oh/woodblock/woodblock_lo_vl1_rr3.wav
hivel=21
seq_position=3
amp_velcurve_21=1

<region>
sample=../Samples/perc/oh/woodblock/woodblock_lo_vl1_rr4.wav
hivel=21
seq_position=4
amp_velcurve_21=1

<region>
sample=../Samples/perc/oh/woodblock/woodblock_lo_vl2_rr1.wav
lovel=22
hivel=42
amp_velcurve_42=1

<region>
sample=../Samples/perc/oh/woodblock/woodblock_lo_vl2_rr2.wav
lovel=22
hivel=42
seq_position=2
amp_velcurve_42=1

<region>
sample=../Samples/perc/oh/woodblock/woodblock_lo_vl2_rr3.wav
lovel=22
hivel=42
seq_position=3
amp_velcurve_42=1

<region>
sample=../Samples/perc/oh/woodblock/woodblock_lo_vl2_rr4.wav
lovel=22
hivel=42
seq_position=4
amp_velcurve_42=1

<region>
sample=../Samples/perc/oh/woodblock/woodblock_lo_vl3_rr1.wav
lovel=43
hivel=63
amp_velcurve_63=1

<region>
sample=../Samples/perc/oh/woodblock/woodblock_lo_vl3_rr2.wav
lovel=43
hivel=63
seq_position=2
amp_velcurve_63=1

<region>
sample=../Samples/perc/oh/woodblock/woodblock_lo_vl3_rr3.wav
lovel=43
hivel=63
seq_position=3
amp_velcurve_63=1

<region>
sample=../Samples/perc/oh/woodblock/woodblock_lo_vl3_rr4.wav
lovel=43
hivel=63
seq_position=4
amp_velcurve_63=1

<region>
sample=../Samples/perc/oh/woodblock/woodblock_lo_vl4_rr1.wav
lovel=64
hivel=84
amp_velcurve_84=1

<region>
sample=../Samples/perc/oh/woodblock/woodblock_lo_vl4_rr2.wav
lovel=64
hivel=84
seq_position=2
amp_velcurve_84=1

<region>
sample=../Samples/perc/oh/woodblock/woodblock_lo_vl4_rr3.wav
lovel=64
hivel=84
seq_position=3
amp_velcurve_84=1

<region>
sample=../Samples/perc/oh/woodblock/woodblock_lo_vl4_rr4.wav
lovel=64
hivel=84
seq_position=4
amp_velcurve_84=1

<region>
sample=../Samples/perc/oh/woodblock/woodblock_lo_vl5_rr1.wav
lovel=85
hivel=105
amp_velcurve_105=1

<region>
sample=../Samples/perc/oh/woodblock/woodblock_lo_vl5_rr2.wav
lovel=85
hivel=105
seq_position=2
amp_velcurve_105=1

<region>
sample=../Samples/perc/oh/woodblock/woodblock_lo_vl5_rr3.wav
lovel=85
hivel=105
seq_position=3
amp_velcurve_105=1

<region>
sample=../Samples/perc/oh/woodblock/woodblock_lo_vl5_rr4.wav
lovel=85
hivel=105
seq_position=4
amp_velcurve_105=1

<region>
sample=../Samples/perc/oh/woodblock/woodblock_lo_vl6_rr1.wav
lovel=106

<region>
sample=../Samples/perc/oh/woodblock/woodblock_lo_vl6_rr2.wav
lovel=106
seq_position=2

<region>
sample=../Samples/perc/oh/woodblock/woodblock_lo_vl6_rr3.wav
lovel=106
seq_position=3

<region>
sample=../Samples/perc/oh/woodblock/woodblock_lo_vl6_rr4.wav
lovel=106
seq_position=4
